<svg width="140" height="140" viewBox="0 0 140 140" fill="none" xmlns="http://www.w3.org/2000/svg">
<g clip-path="url(#clip0_135_563)">
<path d="M4.91022 43.0389L43.0389 4.91024L96.961 4.91024L135.09 43.0389L135.09 96.961L96.961 135.09L43.0389 135.09L4.91022 96.961L4.91022 43.0389Z" fill="white" stroke="#E54C3C" stroke-width="9"/>
<path d="M38.2498 88.0596H47.0698V79.1796H52.2298V72.1596H47.0698V45.2196H38.7298L20.5498 72.8796V79.1796H38.2498V88.0596ZM28.5298 72.1596L35.2498 61.8996C36.7498 59.6196 37.7698 57.6396 38.3698 55.9596H38.6098C38.4298 58.7196 38.2498 62.4396 38.2498 64.8996V72.1596H28.5298Z" fill="#2B579A"/>
<path d="M69.9767 88.6596C80.5367 88.6596 84.6767 80.4396 84.6767 66.6396C84.6767 52.7196 79.8167 44.5596 69.9767 44.5596C59.4167 44.5596 55.3367 52.8396 55.3367 66.6396C55.3367 80.4396 60.0767 88.6596 69.9767 88.6596ZM69.9767 81.3396C65.8367 81.3396 64.3367 76.4196 64.3367 66.6396C64.3367 56.8596 65.8367 51.8796 69.9767 51.8796C74.0567 51.8796 75.6767 56.7996 75.6767 66.6396C75.6767 76.4796 74.0567 81.3396 69.9767 81.3396Z" fill="#2B579A"/>
<path d="M104.344 88.0596H113.164V79.1796H118.324V72.1596H113.164V45.2196H104.824L86.6436 72.8796V79.1796H104.344V88.0596ZM94.6236 72.1596L101.344 61.8996C102.844 59.6196 103.864 57.6396 104.464 55.9596H104.704C104.524 58.7196 104.344 62.4396 104.344 64.8996V72.1596H94.6236Z" fill="#2B579A"/>
<path d="M51.3284 109.94H44.7524V98.5164H51.3284V100.5H47.1684V103.012H51.0404V104.996H47.1684V107.94H51.3284V109.94Z" fill="black"/>
<path d="M57.0336 98.5164C58.0682 98.5164 58.9216 98.6444 59.5936 98.9004C60.2656 99.1457 60.7669 99.5244 61.0976 100.036C61.4282 100.538 61.5936 101.172 61.5936 101.94C61.5936 102.463 61.4922 102.922 61.2896 103.316C61.0976 103.7 60.8362 104.031 60.5056 104.308C60.1856 104.575 59.8389 104.794 59.4656 104.964L62.8256 109.94H60.1376L57.4176 105.556H56.1216V109.94H53.7056V98.5164H57.0336ZM56.8576 100.5H56.1216V103.588H56.9056C57.4389 103.588 57.8709 103.53 58.2016 103.412C58.5322 103.295 58.7722 103.119 58.9216 102.884C59.0709 102.639 59.1456 102.346 59.1456 102.004C59.1456 101.642 59.0602 101.354 58.8896 101.14C58.7296 100.916 58.4789 100.756 58.1376 100.66C57.8069 100.554 57.3802 100.5 56.8576 100.5Z" fill="black"/>
<path d="M67.5961 98.5164C68.6307 98.5164 69.4841 98.6444 70.1561 98.9004C70.8281 99.1457 71.3294 99.5244 71.6601 100.036C71.9907 100.538 72.1561 101.172 72.1561 101.94C72.1561 102.463 72.0547 102.922 71.8521 103.316C71.6601 103.7 71.3987 104.031 71.0681 104.308C70.7481 104.575 70.4014 104.794 70.0281 104.964L73.3881 109.94H70.7001L67.9801 105.556H66.6841V109.94H64.2681V98.5164H67.5961ZM67.4201 100.5H66.6841V103.588H67.4681C68.0014 103.588 68.4334 103.53 68.7641 103.412C69.0947 103.295 69.3347 103.119 69.4841 102.884C69.6334 102.639 69.7081 102.346 69.7081 102.004C69.7081 101.642 69.6227 101.354 69.4521 101.14C69.2921 100.916 69.0414 100.756 68.7001 100.66C68.3694 100.554 67.9427 100.5 67.4201 100.5Z" fill="black"/>
<path d="M85.1986 104.212C85.1986 105.098 85.0866 105.903 84.8626 106.628C84.6492 107.343 84.3186 107.962 83.8706 108.484C83.4332 109.007 82.8679 109.407 82.1746 109.684C81.4919 109.962 80.6866 110.1 79.7586 110.1C78.8306 110.1 78.0199 109.962 77.3266 109.684C76.6439 109.396 76.0786 108.996 75.6306 108.484C75.1932 107.962 74.8626 107.338 74.6386 106.612C74.4252 105.887 74.3186 105.082 74.3186 104.196C74.3186 103.012 74.5106 101.983 74.8946 101.108C75.2892 100.234 75.8866 99.5564 76.6866 99.0764C77.4972 98.5857 78.5266 98.3404 79.7746 98.3404C81.0119 98.3404 82.0306 98.5857 82.8306 99.0764C83.6306 99.5564 84.2226 100.239 84.6066 101.124C85.0012 101.999 85.1986 103.028 85.1986 104.212ZM76.8626 104.212C76.8626 105.012 76.9639 105.7 77.1666 106.276C77.3692 106.852 77.6839 107.295 78.1106 107.604C78.5372 107.914 79.0866 108.068 79.7586 108.068C80.4519 108.068 81.0066 107.914 81.4226 107.604C81.8492 107.295 82.1586 106.852 82.3506 106.276C82.5532 105.7 82.6546 105.012 82.6546 104.212C82.6546 103.007 82.4306 102.063 81.9826 101.38C81.5346 100.698 80.7986 100.356 79.7746 100.356C79.0919 100.356 78.5372 100.511 78.1106 100.82C77.6839 101.13 77.3692 101.572 77.1666 102.148C76.9639 102.724 76.8626 103.412 76.8626 104.212Z" fill="black"/>
<path d="M90.8929 98.5164C91.9276 98.5164 92.7809 98.6444 93.4529 98.9004C94.1249 99.1457 94.6263 99.5244 94.9569 100.036C95.2876 100.538 95.4529 101.172 95.4529 101.94C95.4529 102.463 95.3516 102.922 95.1489 103.316C94.9569 103.7 94.6956 104.031 94.3649 104.308C94.0449 104.575 93.6983 104.794 93.3249 104.964L96.6849 109.94H93.9969L91.2769 105.556H89.9809V109.94H87.5649V98.5164H90.8929ZM90.7169 100.5H89.9809V103.588H90.7649C91.2983 103.588 91.7303 103.53 92.0609 103.412C92.3916 103.295 92.6316 103.119 92.7809 102.884C92.9303 102.639 93.0049 102.346 93.0049 102.004C93.0049 101.642 92.9196 101.354 92.7489 101.14C92.5889 100.916 92.3383 100.756 91.9969 100.66C91.6663 100.554 91.2396 100.5 90.7169 100.5Z" fill="black"/>
</g>
<defs>
<clipPath id="clip0_135_563">
<rect width="140" height="140" fill="white"/>
</clipPath>
</defs>
</svg>
