<svg width="25" height="24" viewBox="0 0 25 24" fill="none" xmlns="http://www.w3.org/2000/svg">
<g clip-path="url(#clip0_103_503)">
<path d="M8.95035 14.0367C8.95035 16.313 7.13825 18.1583 4.90291 18.1583C2.66757 18.1583 0.855469 16.313 0.855469 14.0367C0.855469 11.7603 2.66757 9.91504 4.90291 9.91504C7.13825 9.91504 8.95035 11.7603 8.95035 14.0367ZM1.61007 14.0367C1.61007 15.8886 3.08432 17.3898 4.90291 17.3898C6.72149 17.3898 8.19574 15.8886 8.19574 14.0367C8.19574 12.1847 6.72149 10.6835 4.90291 10.6835C3.08432 10.6835 1.61007 12.1847 1.61007 14.0367Z" fill="currentColor"/>
<path d="M13.8654 13.1252C13.8654 13.9967 13.1716 14.7032 12.3157 14.7032C11.4599 14.7032 10.7661 13.9967 10.7661 13.1252C10.7661 12.2536 11.4599 11.5471 12.3157 11.5471C13.1716 11.5471 13.8654 12.2536 13.8654 13.1252ZM11.055 13.1252C11.055 13.8342 11.6195 14.409 12.3157 14.409C13.012 14.409 13.5765 13.8342 13.5765 13.1252C13.5765 12.4161 13.012 11.8413 12.3157 11.8413C11.6195 11.8413 11.055 12.4161 11.055 13.1252Z" fill="currentColor"/>
<path d="M5.19713 7.85163L3.10986 10.0971C3.80562 9.74859 5.59101 9.31206 7.16655 10.3542C8.7421 11.3964 9.16965 13.1768 9.18648 13.9368L10.2301 10.6456C10.3311 10.0971 10.5836 8.94181 8.90032 7.74878C7.21705 6.55575 5.73016 7.32025 5.19713 7.85163Z" fill="currentColor"/>
<path d="M7.45323 6.32603L6.98193 6.85741C7.95824 6.85741 8.44637 7.04596 8.98502 7.42306C9.55571 7.82261 10.1858 8.58295 10.399 8.96577L10.6515 8.12585C10.7861 7.70304 10.7996 6.70999 9.77615 6.12033C8.75273 5.53067 7.80111 6.01177 7.45323 6.32603Z" fill="currentColor"/>
<path d="M11.3062 8.9314H10.6551L10.4997 9.48891C10.6536 9.77822 10.5935 10.2473 10.5441 10.4457L9.64893 13.1354L10.6551 13.8963C10.6156 13.7959 10.5293 13.503 10.4997 13.1354C10.4701 12.7677 11.025 10.1795 11.3062 8.9314Z" fill="currentColor"/>
<path d="M15.7005 14.0367C15.7005 16.313 17.5126 18.1583 19.748 18.1583C21.9833 18.1583 23.7954 16.313 23.7954 14.0367C23.7954 11.7603 21.9833 9.91504 19.748 9.91504C17.5126 9.91504 15.7005 11.7603 15.7005 14.0367ZM23.0408 14.0367C23.0408 15.8886 21.5666 17.3898 19.748 17.3898C17.9294 17.3898 16.4551 15.8886 16.4551 14.0367C16.4551 12.1847 17.9294 10.6835 19.748 10.6835C21.5666 10.6835 23.0408 12.1847 23.0408 14.0367Z" fill="currentColor"/>
<path d="M19.4538 7.85163L21.541 10.0971C20.8453 9.74859 19.0599 9.31206 17.4843 10.3542C15.9088 11.3964 15.4812 13.1768 15.4644 13.9368L14.4208 10.6456C14.3198 10.0971 14.0673 8.94181 15.7506 7.74878C17.4338 6.55575 18.9207 7.32025 19.4538 7.85163Z" fill="currentColor"/>
<path d="M17.1981 6.32603L17.6694 6.85741C16.6931 6.85741 16.205 7.04596 15.6664 7.42306C15.0957 7.82261 14.4656 8.58295 14.2524 8.96577L13.9999 8.12585C13.8653 7.70304 13.8518 6.70999 14.8752 6.12033C15.8986 5.53067 16.8503 6.01177 17.1981 6.32603Z" fill="currentColor"/>
<path d="M13.3447 8.9314H13.9958L14.1511 9.48891C13.9973 9.77822 14.0574 10.2473 14.1067 10.4457L15.002 13.1354L13.9958 13.8963C14.0352 13.7959 14.1215 13.503 14.1511 13.1354C14.1807 12.7677 13.6259 10.1795 13.3447 8.9314Z" fill="currentColor"/>
<path d="M13.6853 11.9124C12.5932 10.8003 11.4039 11.449 10.9458 11.9124L11.6284 8.54967C11.6837 8.4213 11.9088 8.16455 12.3663 8.16455C12.8238 8.16455 13.0182 8.4213 13.0581 8.54967L13.6853 11.9124Z" fill="currentColor"/>
</g>
<defs>
<clipPath id="clip0_103_503">
<rect width="24" height="24" fill="currentColor/" transform="translate(0.325195)"/>
</clipPath>
</defs>
</svg>
