<svg width="24" height="24" viewBox="0 0 24 24" fill="none" xmlns="http://www.w3.org/2000/svg">
<path d="M21.8982 2.55499C22.1357 2.55499 22.348 2.64495 22.5351 2.82485C22.7078 2.99756 22.7941 3.20625 22.7941 3.45092V20.5491C22.7941 20.7937 22.7078 21.0024 22.5351 21.1751C22.348 21.355 22.1357 21.445 21.8982 21.445H7.49863C7.26116 21.445 7.04887 21.355 6.86177 21.1751C6.68906 21.0024 6.60271 20.7937 6.60271 20.5491V17.3971H2.10149C1.86402 17.3971 1.65173 17.3108 1.46463 17.1381C1.29192 16.951 1.20557 16.7387 1.20557 16.5012V7.49878C1.20557 7.2613 1.29192 7.04901 1.46463 6.86191C1.65173 6.6892 1.86402 6.60285 2.10149 6.60285H6.60271V3.45092C6.60271 3.20625 6.68906 2.99756 6.86177 2.82485C7.04887 2.64495 7.26116 2.55499 7.49863 2.55499H21.8982ZM6.63509 11.2876L7.93041 15.5405H9.40922L10.8233 8.45947H9.33366L8.49171 12.6477L7.29354 8.59979H6.06299L4.77847 12.6692L3.93652 8.45947H2.38214L3.79619 15.5405H5.27501L6.63509 11.2876ZM21.4448 20.0957V17.3971H7.95199V20.0957H21.4448ZM21.4448 16.0478V12.68H11.9999V16.0478H21.4448ZM21.4448 11.3307V7.95214H11.9999V11.3307H21.4448ZM21.4448 6.60285V3.90428H7.95199V6.60285H21.4448Z" fill="currentColor"/>
</svg>
