<svg width="25" height="24" viewBox="0 0 25 24" fill="none" xmlns="http://www.w3.org/2000/svg">
<path d="M22.12 2.55698C22.3574 2.55698 22.5697 2.64691 22.7567 2.82678C22.9294 2.99945 23.0157 3.2081 23.0157 3.45272V20.5473C23.0157 20.7919 22.9294 21.0006 22.7567 21.1732C22.5697 21.3531 22.3574 21.443 22.12 21.443H7.7234C7.48598 21.443 7.27373 21.3531 7.08667 21.1732C6.914 21.0006 6.82766 20.7919 6.82766 20.5473V17.396H2.32738C2.08996 17.396 1.87771 17.3097 1.69065 17.137C1.51798 16.95 1.43164 16.7377 1.43164 16.5003V7.49973C1.43164 7.26231 1.51798 7.05006 1.69065 6.863C1.87771 6.69033 2.08996 6.60399 2.32738 6.60399H6.82766V3.45272C6.82766 3.2081 6.914 2.99945 7.08667 2.82678C7.27373 2.64691 7.48598 2.55698 7.7234 2.55698H22.12ZM6.82766 13.144L8.10112 15.5398H10.0329L7.90687 12.0648L9.98973 8.64369H8.14429L6.96796 10.8129L6.92479 10.8776L6.89241 10.9532C6.70535 10.5719 6.5039 10.187 6.28806 9.79844C6.10819 9.41712 5.91753 9.0322 5.71608 8.64369H3.76272L5.80242 12.0863L3.59005 15.5398H5.51103L6.82766 13.144ZM14.2526 20.094V17.396H8.17667V20.094H14.2526ZM14.2526 16.047V12.6799H12.2237V16.047H14.2526ZM14.2526 11.3309V7.953H12.2237V11.3309H14.2526ZM14.2526 6.60399V3.90598H8.17667V6.60399H14.2526ZM21.6667 20.094V17.396H15.6016V20.094H21.6667ZM21.6667 16.047V12.6799H15.6016V16.047H21.6667ZM21.6667 11.3309V7.953H15.6016V11.3309H21.6667ZM21.6667 6.60399V3.90598H15.6016V6.60399H21.6667Z" fill="currentColor"/>
</svg>
