<svg width="141" height="141" viewBox="0 0 141 141" fill="none" xmlns="http://www.w3.org/2000/svg">
<g clip-path="url(#clip0_144_525)">
<path d="M12.0614 122.563L70.3438 21.615L128.626 122.563L12.0614 122.563Z" fill="white" stroke="#FFC700" stroke-width="9"/>
<path d="M70.3436 30.7041L120.755 118.018H70.3437L70.3436 30.7041Z" fill="#2B579A" fill-opacity="0.15"/>
<path d="M63.2204 103.901C63.2204 102.966 63.4046 102.039 63.7626 101.175C64.1206 100.311 64.6453 99.5257 65.3068 98.8642C65.9682 98.2028 66.7535 97.6781 67.6177 97.3201C68.482 96.9621 69.4083 96.7779 70.3437 96.7779C71.2792 96.7779 72.2055 96.9621 73.0697 97.3201C73.9339 97.6781 74.7192 98.2028 75.3807 98.8642C76.0421 99.5257 76.5668 100.311 76.9248 101.175C77.2828 102.039 77.467 102.966 77.467 103.901C77.467 105.79 76.7165 107.602 75.3807 108.938C74.0448 110.274 72.2329 111.024 70.3437 111.024C68.4545 111.024 66.6427 110.274 65.3068 108.938C63.9709 107.602 63.2204 105.79 63.2204 103.901V103.901ZM63.9185 61.1256C63.8236 60.227 63.9188 59.3184 64.1977 58.4589C64.4767 57.5993 64.9332 56.8081 65.5377 56.1364C66.1423 55.4647 66.8812 54.9276 67.7067 54.5599C68.5322 54.1923 69.4258 54.0023 70.3295 54.0023C71.2331 54.0023 72.1267 54.1923 72.9522 54.5599C73.7777 54.9276 74.5167 55.4647 75.1212 56.1364C75.7257 56.8081 76.1823 57.5993 76.4612 58.4589C76.7402 59.3184 76.8353 60.227 76.7405 61.1256L74.2473 86.1071C74.146 87.0756 73.6896 87.9723 72.9661 88.6241C72.2426 89.2759 71.3033 89.6366 70.3295 89.6366C69.3557 89.6366 68.4164 89.2759 67.6929 88.6241C66.9694 87.9723 66.5129 87.0756 66.4116 86.1071L63.9185 61.1256Z" fill="#2B579A"/>
</g>
<defs>
<clipPath id="clip0_144_525">
<rect width="140" height="140" fill="white" transform="translate(0.34375 0.621155)"/>
</clipPath>
</defs>
</svg>
