<svg width="24" height="25" viewBox="0 0 24 25" fill="none" xmlns="http://www.w3.org/2000/svg">
<path fill-rule="evenodd" clip-rule="evenodd" d="M21.4296 5.96615L18.1075 2.69116L4.20786 2.69117C3.3035 2.69117 2.57037 3.42429 2.57037 4.32866V21.5837C2.57037 22.488 3.3035 23.2212 4.20786 23.2212H19.7921C20.6964 23.2212 21.4296 22.488 21.4296 21.5837V5.96615ZM17.5704 4.00116L20.1196 6.51425V21.5837C20.1196 21.7645 19.9729 21.9112 19.7921 21.9112H4.20786C4.02699 21.9112 3.88037 21.7645 3.88037 21.5837V4.32866C3.88037 4.14778 4.02699 4.00116 4.20786 4.00116L17.5704 4.00116Z" fill="#333333"/>
<path fill-rule="evenodd" clip-rule="evenodd" d="M14.3623 6.24369C14.6932 6.10662 15.0479 6.03607 15.4061 6.03607C15.7643 6.03607 16.1189 6.10662 16.4499 6.24369C16.7808 6.38076 17.0815 6.58167 17.3347 6.83495C17.588 7.08822 17.7889 7.3889 17.926 7.71982C18.0631 8.05074 18.1336 8.40542 18.1336 8.76361C18.1336 9.12179 18.0631 9.47647 17.926 9.80739C17.7892 10.1376 17.5889 10.4377 17.3363 10.6907L10.8295 17.2882C10.5145 17.6031 10.0873 17.7801 9.64191 17.7801C9.1965 17.7801 8.76932 17.6031 8.45437 17.2882C8.13941 16.9732 7.96248 16.5461 7.96248 16.1006C7.96248 15.6562 8.13864 15.2299 8.45229 14.9152L13.9079 9.36898C14.1524 9.12041 14.5521 9.11712 14.8007 9.36163C15.0493 9.60614 15.0526 10.0059 14.8081 10.2544L9.34722 15.806C9.26906 15.8841 9.22514 15.9901 9.22514 16.1006C9.22514 16.2112 9.26905 16.3172 9.34721 16.3953C9.42537 16.4735 9.53138 16.5174 9.64191 16.5174C9.75187 16.5174 9.85735 16.474 9.93539 16.3966L16.4419 9.79942C16.5779 9.66339 16.6858 9.50192 16.7594 9.32419C16.8331 9.14646 16.871 8.95598 16.871 8.76361C16.871 8.57124 16.8331 8.38075 16.7594 8.20302C16.6858 8.0253 16.5779 7.86381 16.4419 7.72779C16.3059 7.59176 16.1444 7.48386 15.9667 7.41024C15.7889 7.33663 15.5985 7.29874 15.4061 7.29874C15.2137 7.29874 15.0232 7.33663 14.8455 7.41024C14.6684 7.4836 14.5074 7.59101 14.3717 7.72637L7.86498 14.3237C7.39371 14.795 7.12894 15.4342 7.12894 16.1006C7.12894 16.7671 7.39369 17.4063 7.86497 17.8776C8.33624 18.3489 8.97543 18.6136 9.64191 18.6136C10.3084 18.6136 10.9476 18.3489 11.4188 17.8776L16.7941 12.5093C17.0408 12.2629 17.4406 12.2632 17.687 12.5099C17.9334 12.7566 17.9331 13.1563 17.6864 13.4027L12.3117 18.7704C11.6036 19.4785 10.6433 19.8763 9.64191 19.8763C8.64055 19.8763 7.6802 19.4785 6.97213 18.7704C6.26406 18.0623 5.86627 17.102 5.86627 16.1006C5.86627 15.1 6.26347 14.1404 6.97055 13.4324L13.4774 6.83494C13.7307 6.58166 14.0314 6.38076 14.3623 6.24369Z" fill="#333333"/>
</svg>
