<svg width="24" height="24" viewBox="0 0 24 24" fill="none" xmlns="http://www.w3.org/2000/svg">
<path d="M23.4694 6.13307H0.530273V3.58427C0.530273 3.24628 0.66454 2.92213 0.903536 2.68314C1.14253 2.44414 1.46668 2.30988 1.80467 2.30988H22.195C22.533 2.30988 22.8572 2.44414 23.0962 2.68314C23.3352 2.92213 23.4694 3.24628 23.4694 3.58427V6.13307Z" fill="currentColor"/>
<path fill-rule="evenodd" clip-rule="evenodd" d="M0.530762 6.80988L5.33789 6.80988V21.6901H1.80516C1.46717 21.6901 1.14302 21.5558 0.904022 21.3168C0.665026 21.0779 0.530762 20.7537 0.530762 20.4157V6.80988ZM22.1955 21.6901L6.01471 21.6901V6.80988L23.4699 6.80988V20.4157C23.4699 20.7537 23.3357 21.0779 23.0967 21.3168C22.8577 21.5558 22.5335 21.6901 22.1955 21.6901ZM16.3606 15.689H16.8647L20.0488 18.8794L19.098 19.8301L15.9076 16.6461V16.142L15.7353 15.9633C15.0079 16.5887 14.0635 16.9651 13.0362 16.9651C10.7455 16.9651 8.88867 15.1083 8.88867 12.8176C8.88867 10.5269 10.7455 8.67004 13.0362 8.67004C15.3269 8.67004 17.1838 10.5269 17.1838 12.8176C17.1838 13.8449 16.8073 14.7893 16.182 15.5167L16.3606 15.689ZM10.1648 12.8176C10.1648 14.4064 11.4474 15.689 13.0362 15.689C14.625 15.689 15.9076 14.4064 15.9076 12.8176C15.9076 11.2288 14.625 9.94621 13.0362 9.94621C11.4474 9.94621 10.1648 11.2288 10.1648 12.8176Z" fill="currentColor"/>
</svg>
