<svg width="25" height="25" viewBox="0 0 25 25" fill="none" xmlns="http://www.w3.org/2000/svg">
<g clip-path="url(#clip0_124_497)">
<path fill-rule="evenodd" clip-rule="evenodd" d="M9.49561 18.0672C9.49561 17.7641 9.74132 17.5184 10.0444 17.5184H21.1416C21.4447 17.5184 21.6904 17.7641 21.6904 18.0672C21.6904 18.3703 21.4447 18.616 21.1416 18.616H10.0444C9.74132 18.616 9.49561 18.3703 9.49561 18.0672Z" fill="currentColor"/>
<path fill-rule="evenodd" clip-rule="evenodd" d="M16.2317 19.8966C16.2317 19.5935 16.4774 19.3478 16.7805 19.3478L21.1414 19.3478C21.4445 19.3478 21.6902 19.5935 21.6902 19.8966C21.6902 20.1997 21.4445 20.4454 21.1414 20.4454L16.7805 20.4454C16.4774 20.4454 16.2317 20.1997 16.2317 19.8966Z" fill="currentColor"/>
<path fill-rule="evenodd" clip-rule="evenodd" d="M2.38417 5.13269C1.57589 5.13269 0.920654 5.78793 0.920654 6.59621V15.3361C0.920654 16.1444 1.57589 16.7996 2.38417 16.7996H22.9546C23.7628 16.7996 24.4181 16.1444 24.4181 15.3361V6.59621C24.4181 5.78793 23.7628 5.13269 22.9546 5.13269H2.38417ZM2.49199 15.1738H4.00819V11.8955H6.87668V15.1738H8.38263V7.59274H6.87668V10.5739H4.00819V7.59274H2.49199V15.1738ZM10.0918 15.1738H11.9461L12.7759 11.4242C12.8879 10.8831 12.9828 10.3504 13.0763 9.82621L13.0763 9.82613L13.1037 9.6724H13.1447C13.2369 10.2461 13.3496 10.83 13.4725 11.4242L14.3228 15.1738H16.2078L17.6113 7.59274H16.1669L15.5727 11.291C15.46 12.0799 15.3473 12.8892 15.2346 13.7088H15.1834C15.1245 13.4143 15.0669 13.1198 15.0097 12.8272L15.0097 12.827L15.0096 12.8269C14.9077 12.3053 14.8069 11.7898 14.7019 11.291L13.8208 7.59274H12.53L11.649 11.291C11.4851 12.0799 11.3212 12.8994 11.1675 13.7088H11.1265C11.0657 13.2722 11.002 12.8357 10.9384 12.4007C10.8842 12.0293 10.8301 11.6591 10.7782 11.291L10.1738 7.59274H8.62682L10.0918 15.1738ZM19.3943 15.1738H17.8781V7.59274H20.3675C22.0477 7.59274 23.3385 8.17668 23.3385 9.96949C23.3385 11.7008 22.0374 12.4794 20.4085 12.4794H19.3943V15.1738ZM19.3943 8.79136V11.2808H20.3061C21.351 11.2808 21.853 10.8403 21.853 9.96949C21.853 9.08845 21.2998 8.79136 20.2549 8.79136H19.3943Z" fill="currentColor"/>
<path fill-rule="evenodd" clip-rule="evenodd" d="M7.40824 2.47421H23.778C23.9477 2.47421 24.1106 2.54166 24.2306 2.66172C24.3507 2.78177 24.4181 2.9446 24.4181 3.11439L24.4182 22.364C24.4182 22.5338 24.3507 22.6967 24.2307 22.8167C24.1106 22.9368 23.9478 23.0042 23.778 23.0042H7.40828C7.23849 23.0042 7.07566 22.9368 6.9556 22.8167C6.83555 22.6967 6.7681 22.5338 6.7681 22.364L6.76808 11.8955H6.87668V15.1738H8.04844L8.04846 21.7239H23.1378L23.1378 11.0293C23.2674 10.7266 23.3385 10.374 23.3385 9.96949C23.3385 9.54976 23.2677 9.19629 23.1378 8.90106L23.1378 3.75457H8.04842L8.04843 7.59274H6.87668V10.5739H6.76808L6.76807 3.11439C6.76807 2.9446 6.83551 2.78177 6.95557 2.66172C7.07563 2.54166 7.23846 2.47421 7.40824 2.47421Z" fill="currentColor"/>
</g>
<defs>
<clipPath id="clip0_124_497">
<rect width="24" height="24" fill="white" transform="translate(0.669434 0.739227)"/>
</clipPath>
</defs>
</svg>
