<svg width="25" height="25" viewBox="0 0 25 25" fill="none" xmlns="http://www.w3.org/2000/svg">
<g clip-path="url(#clip0_121_1344)">
<path fill-rule="evenodd" clip-rule="evenodd" d="M2.91992 5.1319C1.81535 5.1319 0.919922 6.02733 0.919922 7.1319V14.8001C0.919922 15.9046 1.81535 16.8001 2.91992 16.8001H22.4199C23.5245 16.8001 24.4199 15.9046 24.4199 14.8001V7.1319C24.4199 6.02733 23.5245 5.1319 22.4199 5.1319H2.91992ZM21.976 14.4056C21.4637 14.9077 20.5723 15.3175 19.517 15.3175C17.4473 15.3175 15.8798 13.9446 15.8798 11.4139C15.8798 8.91391 17.4986 7.44877 19.517 7.44877C20.6133 7.44877 21.3715 7.92007 21.8633 8.42211L21.0538 9.38521C20.685 9.02661 20.2547 8.74998 19.5682 8.74998C18.308 8.74998 17.4269 9.73357 17.4269 11.3626C17.4269 13.0122 18.185 14.006 19.6707 14.006C20.0395 14.006 20.4084 13.9036 20.6235 13.7192V12.2233H19.2813V10.9835H21.976V14.4056ZM5.25134 15.3175C6.88041 15.3175 7.59761 14.1495 7.59761 12.7253V7.59221H6.08124V12.6024C6.08124 13.6474 5.73289 14.006 5.06691 14.006C4.63659 14.006 4.23701 13.7704 3.93989 13.2171L2.89482 13.9855C3.40711 14.8667 4.1448 15.3175 5.25134 15.3175ZM9.42503 15.174H10.9414V12.4794H11.9557C13.5848 12.4794 14.886 11.7007 14.886 9.96922C14.886 8.17622 13.595 7.59221 11.9147 7.59221H9.42503V15.174ZM10.9414 11.2807V8.79096H11.802C12.8471 8.79096 13.4004 9.08808 13.4004 9.96922C13.4004 10.8401 12.8983 11.2807 11.8533 11.2807H10.9414Z" fill="currentColor"/>
<path fill-rule="evenodd" clip-rule="evenodd" d="M7.40783 2.47314H23.7793C23.9491 2.47314 24.112 2.5406 24.232 2.66067C24.3521 2.78074 24.4196 2.94359 24.4196 3.11339L24.4196 22.3651C24.4196 22.5349 24.3521 22.6978 24.2321 22.8179C24.112 22.9379 23.9492 23.0054 23.7794 23.0054H7.40786C7.23806 23.0054 7.07521 22.9379 6.95514 22.8179C6.83507 22.6978 6.76761 22.5349 6.76761 22.3651L6.7676 14.8264C7.33522 14.3542 7.59751 13.5866 7.59751 12.7253V7.59224H6.76759L6.76758 3.11339C6.76758 2.94359 6.83503 2.78074 6.9551 2.66067C7.07517 2.5406 7.23802 2.47314 7.40783 2.47314ZM19.7547 17.0604L23.1391 20.0789L23.1391 3.75364H8.04807L8.04811 21.7249L12.6214 18.2493L15.4557 20.9935L19.7547 17.0604Z" fill="currentColor"/>
</g>
<defs>
<clipPath id="clip0_121_1344">
<rect width="24" height="24" fill="white" transform="translate(0.669922 0.739227)"/>
</clipPath>
</defs>
</svg>
