<svg width="25" height="25" viewBox="0 0 25 25" fill="none" xmlns="http://www.w3.org/2000/svg">
<g clip-path="url(#clip0_121_1394)">
<path d="M10.0449 18.0678H21.1433" stroke="currentColor" stroke-width="0.8" stroke-linecap="round"/>
<path d="M16.7817 19.8974L21.1431 19.8974" stroke="currentColor" stroke-width="0.8" stroke-linecap="round"/>
<path fill-rule="evenodd" clip-rule="evenodd" d="M2.91992 5.13187C1.81535 5.13187 0.919922 6.0273 0.919922 7.13187V14.8C0.919922 15.9046 1.81535 16.8 2.91992 16.8H22.4199C23.5245 16.8 24.4199 15.9046 24.4199 14.8V7.13187C24.4199 6.0273 23.5245 5.13187 22.4199 5.13187H2.91992ZM3.34872 15.174H4.86509V12.4794H5.87942C7.50849 12.4794 8.80969 11.7007 8.80969 9.96919C8.80969 8.17618 7.51873 7.59218 5.83843 7.59218H3.34872V15.174ZM4.86509 11.2806V8.79093H5.72573C6.77079 8.79093 7.32406 9.08805 7.32406 9.96919C7.32406 10.8401 6.82202 11.2806 5.77696 11.2806H4.86509ZM10.1825 15.174H12.3444C14.578 15.174 16.0124 13.9035 16.0124 11.3524C16.0124 8.79093 14.578 7.59218 12.2624 7.59218H10.1825V15.174ZM11.6989 13.9548V8.80117H12.1702C13.5841 8.80117 14.4653 9.49788 14.4653 11.3524C14.4653 13.1966 13.5841 13.9548 12.1702 13.9548H11.6989ZM19.013 15.174H17.4966V7.59218H22.1687V8.8524H19.013V10.8298H21.7076V12.1003H19.013V15.174Z" fill="currentColor"/>
<path fill-rule="evenodd" clip-rule="evenodd" d="M7.40783 2.47311H23.7793C23.9491 2.47311 24.112 2.54057 24.232 2.66064C24.3521 2.78071 24.4196 2.94356 24.4196 3.11336L24.4196 22.3651C24.4196 22.5349 24.3521 22.6978 24.2321 22.8178C24.112 22.9379 23.9492 23.0054 23.7794 23.0054H7.40786C7.23806 23.0054 7.07521 22.9379 6.95514 22.8178C6.83507 22.6978 6.76761 22.5349 6.76761 22.3651L6.76759 12.3934C7.26629 12.2906 7.70582 12.0941 8.04809 11.7973L8.04811 21.7249H23.1391L23.1391 3.75361H8.04807L8.04808 8.1779C7.70765 7.91098 7.26945 7.74725 6.76759 7.66305L6.76758 3.11336C6.76758 2.94356 6.83503 2.78071 6.9551 2.66064C7.07517 2.54057 7.23802 2.47311 7.40783 2.47311ZM6.76759 11.0727L6.76759 8.96478C7.13422 9.13791 7.3237 9.45356 7.3237 9.9692C7.3237 10.4941 7.14132 10.8627 6.76759 11.0727Z" fill="currentColor"/>
</g>
<defs>
<clipPath id="clip0_121_1394">
<rect width="24" height="24" fill="white" transform="translate(0.669922 0.739227)"/>
</clipPath>
</defs>
</svg>
