<svg width="25" height="25" viewBox="0 0 25 25" fill="none" xmlns="http://www.w3.org/2000/svg">
<g clip-path="url(#clip0_121_1348)">
<path fill-rule="evenodd" clip-rule="evenodd" d="M2.69629 5.13193C1.59172 5.13193 0.696289 6.02736 0.696289 7.13193V14.8C0.696289 15.9046 1.59172 16.8 2.69629 16.8H22.1961C23.3007 16.8 24.1961 15.9046 24.1961 14.8V7.13193C24.1961 6.02736 23.3007 5.13193 22.1961 5.13193H2.69629ZM22.4945 14.4056C21.9822 14.9076 21.0909 15.3174 20.0355 15.3174C17.9659 15.3174 16.3983 13.9445 16.3983 11.4139C16.3983 8.91391 18.0172 7.44878 20.0355 7.44878C21.1318 7.44878 21.89 7.92008 22.3818 8.42212L21.5724 9.38521C21.2036 9.02661 20.7732 8.74998 20.0868 8.74998C18.8266 8.74998 17.9454 9.73356 17.9454 11.3626C17.9454 13.0122 18.7036 14.006 20.1892 14.006C20.5581 14.006 20.9269 13.9035 21.1421 13.7191V12.2233H19.7999V10.9835H22.4945V14.4056ZM2.26942 15.174H3.78578V12.4794H4.8001C6.42916 12.4794 7.73036 11.7007 7.73036 9.96921C7.73036 8.17622 6.4394 7.59222 4.75911 7.59222H2.26942V15.174ZM3.78578 11.2807V8.79096H4.64641C5.69147 8.79096 6.24474 9.08809 6.24474 9.96921C6.24474 10.8401 5.7427 11.2807 4.69764 11.2807H3.78578ZM9.10319 15.174H10.5376V12.131C10.5376 11.4454 10.4677 10.709 10.403 10.0268V10.0268V10.0267L10.403 10.0267L10.403 10.0265C10.3855 9.84226 10.3684 9.66196 10.3532 9.48767H10.4044L11.1728 11.1167L13.3654 15.174H14.9022V7.59222H13.4678V10.6147C13.4678 11.4086 13.5638 12.3246 13.643 13.0812L13.6625 13.2683H13.6113L12.8531 11.629L10.6503 7.59222H9.10319V15.174Z" fill="currentColor"/>
<path fill-rule="evenodd" clip-rule="evenodd" d="M7.18443 2.47318H23.5558C23.7256 2.47318 23.8885 2.54063 24.0085 2.6607C24.1286 2.78077 24.1961 2.94362 24.1961 3.11342L24.1961 22.365C24.1961 22.5348 24.1286 22.6977 24.0086 22.8178C23.8885 22.9378 23.7257 23.0053 23.5559 23.0053H7.18447C7.01466 23.0053 6.85182 22.9378 6.73175 22.8178C6.61168 22.6977 6.54422 22.5348 6.54422 22.365L6.54421 12.0897C7.26575 11.6983 7.73036 11.0039 7.73036 9.96923C7.73036 8.89995 7.27123 8.26065 6.5442 7.91878L6.54419 3.11342C6.54419 2.94362 6.61164 2.78077 6.73171 2.6607C6.85178 2.54063 7.01463 2.47318 7.18443 2.47318ZM19.5312 17.0604L22.9156 20.0788L22.9156 3.75366H7.82468L7.82471 21.7248L12.398 18.2493L15.2323 20.9934L19.5312 17.0604Z" fill="currentColor"/>
</g>
<defs>
<clipPath id="clip0_121_1348">
<rect width="24" height="24" fill="white" transform="translate(0.446289 0.739227)"/>
</clipPath>
</defs>
</svg>
