<svg width="141" height="141" viewBox="0 0 141 141" fill="none" xmlns="http://www.w3.org/2000/svg">
<path d="M14.5778 10.8462C14.5778 9.09633 16.2283 7.67777 18.2644 7.67777H123.135C125.171 7.67777 126.821 9.09633 126.821 10.8462V18.5093C126.821 20.2592 125.171 21.6778 123.135 21.6778H18.2644C16.2283 21.6778 14.5778 20.2592 14.5778 18.5093V10.8462Z" fill="black"/>
<path d="M14.5778 124.338C14.5778 122.588 16.2283 121.17 18.2644 121.17H123.135C125.171 121.17 126.821 122.588 126.821 124.338V132.001C126.821 133.751 125.171 135.17 123.135 135.17H18.2644C16.2283 135.17 14.5778 133.751 14.5778 132.001V124.338Z" fill="black"/>
<path fill-rule="evenodd" clip-rule="evenodd" d="M44.7585 69.7897L27.4192 19.0568L32.6519 17.2684L50.5878 69.7465L32.6649 124.842L27.4062 123.131L44.7585 69.7897Z" fill="black"/>
<path fill-rule="evenodd" clip-rule="evenodd" d="M96.6412 69.7897L113.981 19.0568L108.748 17.2684L90.8119 69.7465L108.735 124.842L113.993 123.131L96.6412 69.7897Z" fill="black"/>
<path d="M70.6996 21.696L107.235 21.696L90.8378 69.7453L107.592 121.17H70.6997L70.6996 21.696Z" fill="#2B579A" fill-opacity="0.15"/>
<path d="M82.4419 52.3763H58.9747C57.6007 52.3763 56.7097 53.8254 57.3298 55.0515L65.9673 70.1532C66.0977 70.4111 66.1657 70.6961 66.1657 70.9851V72.005C66.1657 72.3007 66.0945 72.592 65.9582 72.8544L43.2534 114.654C43.1171 114.916 43.046 115.207 43.046 115.503V118.109C43.046 119.127 43.8712 119.952 44.8893 119.952H96.5053C97.5233 119.952 98.3486 119.127 98.3486 118.109V115.503C98.3486 115.208 98.2774 114.916 98.1411 114.654L75.4331 72.8545C75.2967 72.592 75.2256 72.3006 75.2256 72.0049V70.9863C75.2256 70.6965 75.2939 70.4108 75.4251 70.1523L84.0857 55.0537C84.7079 53.8274 83.8169 52.3763 82.4419 52.3763Z" fill="#2B579A"/>
</svg>
