<svg width="25" height="24" viewBox="0 0 25 24" fill="none" xmlns="http://www.w3.org/2000/svg">
<g clip-path="url(#clip0_128_547)">
<path fill-rule="evenodd" clip-rule="evenodd" d="M8.99609 17.328C8.99609 17.0249 9.24181 16.7792 9.54491 16.7792H20.6421C20.9452 16.7792 21.1909 17.0249 21.1909 17.328C21.1909 17.6311 20.9452 17.8768 20.6421 17.8768H9.54491C9.24181 17.8768 8.99609 17.6311 8.99609 17.328Z" fill="currentColor"/>
<path fill-rule="evenodd" clip-rule="evenodd" d="M15.7322 19.1574C15.7322 18.8543 15.9779 18.6086 16.281 18.6086L20.6419 18.6086C20.945 18.6086 21.1907 18.8543 21.1907 19.1574C21.1907 19.4605 20.945 19.7062 20.6419 19.7062L16.281 19.7062C15.9779 19.7062 15.7322 19.4605 15.7322 19.1574Z" fill="currentColor"/>
<path fill-rule="evenodd" clip-rule="evenodd" d="M1.88466 4.39346C1.07638 4.39346 0.421143 5.0487 0.421143 5.85698V14.5968C0.421143 15.4051 1.07638 16.0604 1.88466 16.0604H22.455C23.2633 16.0604 23.9186 15.4051 23.9186 14.5968V5.85698C23.9186 5.0487 23.2633 4.39346 22.455 4.39346H1.88466ZM5.051 14.4345H6.5672V8.1136H8.71857V6.85351H2.92012V8.1136H5.051V14.4345ZM8.91898 14.4345H10.5274L11.3367 12.7544C11.5211 12.3651 11.6953 11.9656 11.8899 11.5046H11.9309C12.0373 11.7222 12.1323 11.9262 12.2234 12.1218C12.3253 12.3406 12.4223 12.5489 12.5251 12.7544L13.3754 14.4345H15.0555L12.9246 10.5928L14.9223 6.85351H13.3242L12.607 8.41069C12.4431 8.76926 12.2895 9.13806 12.1051 9.60931H12.0538C11.9453 9.38239 11.851 9.17922 11.763 8.98951C11.6682 8.78525 11.5807 8.59659 11.4904 8.41069L10.7323 6.85351H9.05216L11.0499 10.5211L8.91898 14.4345ZM18.9127 14.4345H17.3965V8.1136H15.2657V6.85351H21.0641V8.1136H18.9127V14.4345Z" fill="currentColor"/>
<path fill-rule="evenodd" clip-rule="evenodd" d="M6.90873 1.73499H23.2784C23.4482 1.73499 23.6111 1.80243 23.7311 1.92249C23.8512 2.04255 23.9186 2.20538 23.9186 2.37516L23.9187 21.6248C23.9187 21.7946 23.8512 21.9574 23.7312 22.0775C23.6111 22.1975 23.4483 22.265 23.2785 22.265H6.90877C6.73898 22.265 6.57615 22.1975 6.45609 22.0775C6.33604 21.9574 6.26859 21.7946 6.26859 21.6248L6.26858 14.4345H6.56729V8.1136H7.54892L7.54894 20.9846H22.6383L22.6383 3.01534H7.54891L7.54892 6.85351H6.26856L6.26855 2.37516C6.26855 2.20538 6.336 2.04255 6.45606 1.92249C6.57611 1.80243 6.73895 1.73499 6.90873 1.73499Z" fill="currentColor"/>
</g>
<defs>
<clipPath id="clip0_128_547">
<rect width="24" height="24" fill="currentColor" transform="translate(0.169922)"/>
</clipPath>
</defs>
</svg>
