<svg width="25" height="25" viewBox="0 0 25 25" fill="none" xmlns="http://www.w3.org/2000/svg">
<g clip-path="url(#clip0_121_1403)">
<path fill-rule="evenodd" clip-rule="evenodd" d="M3.14355 5.13187C2.03899 5.13187 1.14355 6.0273 1.14355 7.13187V14.8C1.14355 15.9046 2.03898 16.8 3.14355 16.8H22.6435C23.7481 16.8 24.6435 15.9046 24.6435 14.8V7.13187C24.6435 6.0273 23.7481 5.13187 22.6435 5.13187H3.14355ZM4.90173 15.174H10.332V13.9035H6.76645L10.291 8.4938V7.59218H5.23984V8.8524H8.4365L4.90173 14.2621V15.174ZM11.677 15.174H13.1934V7.59218H11.677V15.174ZM16.5753 15.174H15.0589V7.59218H17.5486C19.2289 7.59218 20.5199 8.17618 20.5199 9.96919C20.5199 11.7007 19.2187 12.4794 17.5896 12.4794H16.5753V15.174ZM16.5753 8.79093V11.2806H17.4872C18.5322 11.2806 19.0343 10.8401 19.0343 9.96919C19.0343 9.08805 18.481 8.79093 17.4359 8.79093H16.5753Z" fill="currentColor"/>
<path fill-rule="evenodd" clip-rule="evenodd" d="M7.63146 2.47311H24.003C24.1728 2.47311 24.3356 2.54057 24.4557 2.66064C24.5757 2.78071 24.6432 2.94356 24.6432 3.11336L24.6432 22.3651C24.6432 22.5349 24.5758 22.6978 24.4557 22.8178C24.3356 22.9379 24.1728 23.0054 24.003 23.0054H7.63149C7.46169 23.0054 7.29884 22.9379 7.17877 22.8178C7.0587 22.6978 6.99125 22.5349 6.99125 22.3651L6.99123 15.174H8.27173L8.27174 21.7249H23.3627L23.3627 3.75361H8.27171L8.27171 7.59219H6.99122L6.99121 3.11336C6.99121 2.94356 7.05867 2.78071 7.17874 2.66064C7.2988 2.54057 7.46165 2.47311 7.63146 2.47311ZM6.99122 8.85242L6.99123 11.0642L8.27172 9.10446L8.27172 8.85242H6.99122ZM8.27172 11.593L6.99123 13.5584L6.99123 13.9036H8.27173L8.27172 11.593Z" fill="currentColor"/>
<rect x="13.0767" y="20.8235" width="1.57197" height="1.57197" transform="rotate(-90 13.0767 20.8235)" fill="currentColor"/>
<rect x="16.2205" y="20.8235" width="1.57197" height="1.57197" transform="rotate(-90 16.2205 20.8235)" fill="currentColor"/>
<rect x="19.3645" y="20.8235" width="1.57197" height="1.57197" transform="rotate(-90 19.3645 20.8235)" fill="currentColor"/>
<rect x="14.6487" y="19.2515" width="1.57197" height="1.57197" transform="rotate(-90 14.6487 19.2515)" fill="currentColor"/>
<rect x="17.7927" y="19.2515" width="1.57197" height="1.57197" transform="rotate(-90 17.7927 19.2515)" fill="currentColor"/>
<rect x="20.9363" y="19.2515" width="1.57197" height="1.57197" transform="rotate(-90 20.9363 19.2515)" fill="currentColor"/>
</g>
<defs>
<clipPath id="clip0_121_1403">
<rect width="24" height="24" fill="white" transform="translate(0.893555 0.739227)"/>
</clipPath>
</defs>
</svg>
